<?xml version="1.0" encoding="utf-8"?>
<!-- Generator: Adobe Illustrator 25.2.1, SVG Export Plug-In . SVG Version: 6.00 Build 0)  -->
<svg version="1.1" id="Layer_1" xmlns="http://www.w3.org/2000/svg" xmlns:xlink="http://www.w3.org/1999/xlink" x="0px" y="0px"
	 viewBox="0 0 2096 342" style="enable-background:new 0 0 2096 342;" xml:space="preserve">
<style type="text/css">
	.st0{fill:#FFFFFF;}
</style>
<g>
	<g>
		<g>
			<g>
				<path class="st0" d="M205.7,57.1c0.2,0,0.4,0.1,0.6,0.1c4,0.5,7.5,2.1,10.4,4.8c2.5,2.3,4.1,5.1,4.9,8.4
					c1.4,5.9-0.1,12.2-3.9,16.7c-2,2.4-3.8,4.9-5.2,7.7c-1.4,2.7-2.4,5.6-3,8.6c-0.9,5.2-0.3,10.2,1.9,15c1.1,2.3,2.4,4.5,4.1,6.5
					c2.3,2.8,5.2,4.8,8.5,6.3c2.7,1.3,5.6,2.1,8.5,2.5c1.3,0.2,2.6,0.3,3.9,0.4c0.8,0.1,1.6,0,2.3-0.1c2-0.3,4.1-0.7,6.1-1.3
					c3.9-1.2,7.2-3.2,10-6.2c2.1-2.2,4.6-3.7,7.5-4.4c2.3-0.6,4.6-0.8,7-0.6c2.6,0.2,5.1,0.8,7.5,1.9c3.3,1.5,5.6,3.9,7.2,7.1
					c1,2,1.5,4.1,1.8,6.3c0.2,1.8,0.2,3.6,0.1,5.4c-0.1,3.1-1.2,5.8-3.1,8.2c-2.7,3.3-6.2,5.6-10.4,6.7c-1.6,0.4-3.2,0.5-4.9,0.4
					c-4.3-0.2-8-1.8-11.4-4.4c-1-0.8-1.9-1.6-2.9-2.3c-2.5-1.9-5.1-3.5-7.9-4.8c-2.3-1-4.7-1.7-7.2-1.9c-2.6-0.3-5.2-0.1-7.7,0.6
					c-2.9,0.8-5.5,2-8.1,3.5c-2.1,1.3-4,2.7-5.9,4.3c-1.8,1.5-3.7,2.7-5.9,3.6c-2.6,1-5.4,1.5-8.2,1.2c-3-0.3-5.8-1.3-8.3-3
					c-3.5-2.4-6-5.6-7.2-9.7c-1.2-4-1-8,0.6-11.9c0.9-2.1,2.1-4,3.6-5.8c1.4-1.6,2.6-3.2,3.7-4.9c1.7-2.6,3-5.3,3.8-8.3
					c0.7-2.6,1-5.2,0.8-7.9c-0.2-3-1-5.8-2.2-8.5c-1.4-3.2-3.3-6-5.4-8.7c-0.2-0.3-0.5-0.6-0.7-0.8c-2.2-2.7-3.7-5.7-4.4-9.1
					c-1-5.1-0.1-9.8,2.9-13.9c2.7-3.7,6.3-5.9,10.8-6.9c0.7-0.1,1.3-0.2,2-0.3c0.1,0,0.3-0.1,0.4-0.1
					C203.7,57.1,204.7,57.1,205.7,57.1z"/>
				<path class="st0" d="M57.9,138.1c0.2-0.2,0.2-0.5,0.3-0.7c0.2-2.5,1-4.8,2.2-7c2.7-4.7,6.7-7.6,12-8.7c4.6-0.9,9-0.1,13.1,2
					c1.1,0.6,2.1,1.3,3.1,2.1c0.7,0.6,1.5,1.3,2.2,1.9c2.2,2.1,4.8,3.6,7.7,4.7c2.4,0.9,4.9,1.6,7.5,1.8c3.3,0.3,6.6-0.1,9.7-1.1
					c2.8-0.9,5.5-2.2,7.9-3.8c1-0.7,2-1.3,2.9-2c0.2-0.1,0.4-0.3,0.5-0.5c2.3-2.9,4.3-6,5.8-9.3c0.9-2,1.6-4.2,2-6.4
					c0.4-2.6,0.4-5.2-0.1-7.8c-0.6-2.8-1.6-5.4-2.9-7.8c-1.4-2.7-3.2-5.2-5-7.6c-0.5-0.7-1-1.3-1.5-2.1c-1.6-2.3-2.6-4.9-3.1-7.6
					c-1.2-6.9,1.5-13.4,7-17.5c2.5-1.8,5.3-2.9,8.4-3.3c4.3-0.6,8.3,0.2,12,2.5c4.5,2.8,7.2,6.9,8,12.1c0.8,5.4-0.6,10.3-3.8,14.7
					c-0.5,0.7-1.1,1.4-1.7,2.1c-1.9,2.5-3.6,5.1-5,8c-1,2.2-1.8,4.5-2.2,6.9c-0.5,3.3-0.3,6.6,0.6,9.8c0.8,2.7,2,5.2,3.4,7.5
					c1.3,2.1,2.8,4.1,4.4,6.1c1.5,1.7,2.7,3.7,3.4,5.8c1.7,4.7,1.3,9.3-0.8,13.8c-0.7,1.5-1.6,2.9-2.7,4.2c-0.3,0.4-0.6,0.7-0.9,1
					c-2.3,2.2-5,4-8.1,4.9c-5.6,1.7-10.6,0.6-15.1-3.2c-0.5-0.4-1-0.9-1.4-1.3c-4-3.9-8.8-6.4-14.3-7.5c-2.8-0.6-5.6-0.7-8.4-0.4
					c-6.7,0.7-12.5,3.4-17.3,8.1c-2.2,2.2-4.9,3.7-7.9,4.5c-3.7,0.9-7.4,0.6-10.9-1c-5.8-2.6-9.4-7.1-10.7-13.3
					c-0.1-0.5-0.2-1-0.2-1.4c0-0.3-0.1-0.6-0.3-0.9C57.9,139.6,57.9,138.9,57.9,138.1z"/>
				<path class="st0" d="M286.2,204.6c0,0.2-0.1,0.4-0.1,0.6c-0.1,2.8-0.9,5.3-2.3,7.7c-2.3,3.8-5.6,6.5-9.8,7.9
					c-4.6,1.5-9.1,1.2-13.4-0.9c-0.9-0.4-1.8-1-2.7-1.5c-0.8-0.5-1.4-1.1-2.1-1.7c-1.8-1.8-3.8-3.3-6-4.6c-2.6-1.5-5.4-2.6-8.3-3.2
					c-2.1-0.4-4.2-0.5-6.3-0.4c-3.7,0.2-7.2,1.1-10.6,2.4c-0.2,0.1-0.5,0.2-0.7,0.4c-3.2,2.1-6.1,4.6-8.6,7.5c-2.3,2.7-4,5.7-5.1,9
					c-1,3.1-1.3,6.2-1,9.4c0.4,3.6,1.5,6.9,3.1,10.1c1.4,2.7,3.1,5.3,5.1,7.6c1.1,1.3,2.1,2.7,2.9,4.3c1.6,3.2,2.3,6.5,1.9,10
					c-0.4,4-2,7.5-4.8,10.5c-2.8,3-6.2,4.7-10.2,5.4c-0.4,0.1-0.7,0.1-1.1,0.1c-0.1,0-0.3,0.1-0.4,0.1c-1,0-1.9,0-2.9,0
					c-0.2,0-0.3-0.1-0.5-0.1c-7.7-0.8-14-6.3-15.6-13.8c-1.3-6,0.2-11.3,4-16c0.7-0.9,1.4-1.7,2.1-2.5c2-2.6,3.7-5.4,5-8.5
					c0.9-2.2,1.4-4.4,1.6-6.7c0.3-3.3-0.1-6.5-1.1-9.6c-1-3.2-2.6-6.2-4.6-8.9c-0.8-1.2-1.7-2.3-2.6-3.4c-1.2-1.4-2.2-2.9-3-4.6
					c-1.5-3-2.1-6.1-1.8-9.4c0.2-2.5,1-4.8,2.2-6.9c1.1-1.9,2.5-3.6,4.2-5c0.4-0.4,0.9-0.7,1.2-1.2c0.3-0.5,0.8-0.7,1.4-0.7
					c0.4,0,0.7-0.2,1-0.3c1.9-1,3.9-1.7,6-2.1c3.1-0.5,6.1-0.3,9,0.9c1.7,0.8,3.3,1.8,4.6,3.2c4.1,4.4,9.1,7,15,8.1
					c2.6,0.5,5.2,0.6,7.9,0.4c5.7-0.5,10.9-2.4,15.4-6c0.9-0.7,1.8-1.5,2.6-2.4c2.5-2.6,5.5-4,9.1-4.4c3.5-0.4,6.9,0.2,10.2,1.7
					c3,1.4,5.5,3.4,7.3,6.2c1.5,2.3,2.4,4.7,2.8,7.4c0.1,0.4,0,0.8,0.1,1.2c0,0.2,0.1,0.5,0.1,0.7
					C286.2,203.3,286.2,203.9,286.2,204.6z"/>
				<path class="st0" d="M138.5,285.5c-0.2,0-0.3-0.1-0.5-0.1c-3.7-0.4-7.1-1.8-9.9-4.3c-3.3-3-5.4-6.7-6.1-11.1
					c-0.8-5.6,0.8-10.5,4.7-14.6c1.8-1.8,3.4-3.8,4.7-6c1.8-3.2,3-6.7,3.4-10.4c0.8-7.9-1.2-15-6.3-21.1c-3.4-4.1-7.8-6.8-12.8-8.4
					c-1.5-0.5-3-0.7-4.5-0.9c-1-0.1-2-0.3-3-0.4c-0.3,0-0.5,0-0.8,0c-3.6,0-7.1,0.9-10.4,2.4c-2.7,1.3-5.1,2.9-7.3,4.8
					c-0.6,0.5-1.3,1.1-1.9,1.6c-1.3,1.1-2.7,2-4.1,2.7c-3.1,1.5-6.3,2.1-9.7,1.7c-4.8-0.7-8.9-2.8-12.1-6.5c-1.8-2.1-3-4.6-3.5-7.3
					c-0.1-0.6-0.2-1.2-0.2-1.8c0-0.4-0.1-0.9-0.3-1.3c0-0.4,0-0.9,0-1.3c0.2-0.4,0.2-0.8,0.3-1.3c0.8-8.9,7.1-14.5,13.8-15.9
					c5.5-1.2,10.5-0.1,15,3.3c0.4,0.3,0.9,0.7,1.3,1.1c2.1,1.9,4.3,3.6,6.7,4.9c2.9,1.6,6,2.6,9.2,3c4.5,0.6,8.9,0.2,13.2-1.3
					c3.3-1.2,6.3-3,9-5.3c1.1-1,2.2-1.9,3.5-2.7c2.2-1.4,4.5-2.4,7-3c4.7-1,9.1-0.2,13.1,2.4c2.6,1.7,4.7,3.8,6.1,6.5
					c1,1.8,1.6,3.8,1.8,5.9c0.4,4.1-0.5,7.9-2.4,11.5c-0.8,1.5-1.7,2.8-2.8,4.1c-1.7,2-3.2,4.1-4.5,6.5c-1.4,2.6-2.4,5.3-2.9,8.1
					c-0.4,2.2-0.5,4.4-0.3,6.6c0.4,4.4,1.9,8.3,4.2,12c1.2,1.9,2.5,3.6,3.9,5.3c1.6,1.8,2.8,3.8,3.7,6.1c0.9,2.5,1.4,5,1.2,7.7
					c-0.5,8.3-6.1,14.4-13.4,16.2c-0.9,0.2-1.8,0.4-2.7,0.5c-0.2,0-0.3,0.1-0.5,0.1C140.3,285.5,139.4,285.5,138.5,285.5z"/>
			</g>
			<path class="st0" d="M140.9,176.1c-4.3,0-8,1-11.6,2.7c-3.2,1.5-6.1,3.4-8.7,5.7c-1.4,1.2-3,2.3-4.7,3.1
				c-3.1,1.5-6.4,2.2-9.9,1.8c-5.3-0.6-9.5-3.2-12.5-7.6c-1.7-2.5-2.8-5.3-3.2-8.3c-0.8-6,1.6-12.2,6.2-15.9
				c2.3-1.9,4.9-3.1,7.7-3.8c1.9-0.5,3.9-0.6,5.9-0.4c3.2,0.3,6,1.5,8.5,3.4c0.6,0.5,1.2,1,1.7,1.4c1.6,1.3,3.1,2.6,4.8,3.8
				c1.8,1.3,3.8,2.3,5.9,3.1c2,0.7,4,1.2,6.1,1.4c5.2,0.6,10.2-0.4,14.9-2.7c2.6-1.3,4.9-2.9,7.2-4.7c0.2-0.2,0.4-0.3,0.5-0.5
				c1.8-2.5,3.5-5,4.8-7.8c1.1-2.2,1.9-4.6,2.4-7c0.6-3.3,0.5-6.6-0.4-9.9c-0.7-2.4-1.7-4.7-2.9-6.9c-1.4-2.5-3-4.8-4.8-7
				c-1.6-2-2.8-4.1-3.7-6.4c-1-2.7-1.4-5.5-1.1-8.4c0.4-4.1,2.1-7.5,5.1-10.4c2.1-2.1,4.6-3.5,7.5-4.2c1.7-0.4,3.4-0.6,5.1-0.5
				c2.6,0,5.1,0.5,7.5,1.3c4.9,1.8,8.2,5.2,9.9,10.1c1.9,5.7,1.2,11.1-2,16.1c-0.7,1.2-1.6,2.2-2.5,3.3c-1,1.2-2,2.4-2.9,3.7
				c-2.1,3.2-3.6,6.6-4.3,10.3c-0.5,2.4-0.6,4.8-0.4,7.2c0.6,6.5,3.2,11.9,7.7,16.5c3.4,3.5,7.4,5.9,12.1,7.3c3,0.9,6.1,1.2,9.2,0.9
				c5.5-0.4,10.4-2.4,14.8-5.8c0.6-0.5,1.2-1,1.9-1.5c1.5-1.3,3.1-2.5,4.8-3.5c1.8-1,3.7-1.8,5.8-2.2c1.6-0.3,3.2-0.3,4.8-0.1
				c1.6,0.2,3.2,0.6,4.7,1.1c4.2,1.6,7.2,4.4,9.2,8.4c1.2,2.4,1.9,4.9,2.1,7.5c0.2,1.6,0,3.3-0.4,4.9c-0.9,3.6-2.6,6.7-5.2,9.3
				c-2.3,2.3-5.1,3.7-8.2,4.4c-4.9,1.1-9.5,0.3-13.7-2.3c-0.8-0.5-1.6-1.1-2.4-1.7c-2.1-1.7-4.3-3.3-6.6-4.8
				c-2.1-1.3-4.4-2.4-6.8-3.2c-2.5-0.8-5.1-1.1-7.7-0.9c-2.2,0.2-4.3,0.6-6.4,1.3c-2.5,0.8-4.8,1.9-7.2,3.1
				c-0.7,0.4-1.5,0.8-2.2,1.2c-0.3,0.1-0.5,0.3-0.7,0.5c-2.2,2.4-4.2,4.9-5.9,7.7c-1.3,2.2-2.4,4.5-3.1,6.9c-0.7,2.3-1,4.6-0.9,7
				c0.1,2.7,0.7,5.3,1.6,7.8c0.9,2.5,2.2,4.8,3.6,7c1.1,1.7,2.3,3.3,3.6,4.9c2.3,2.8,3.7,5.9,4.2,9.5c0.4,2.9,0.3,5.7-0.6,8.4
				c-0.8,2.5-2.1,4.6-4.1,6.2c-2.2,1.8-4.5,3.4-7.1,4.4c-2,0.8-4,1.3-6.2,1.3c-2.2,0.1-4.3-0.3-6.3-1.1c-4.5-1.9-7.9-5-10-9.4
				c-1.2-2.5-1.8-5.3-1.6-8.1c0.2-3.8,1.4-7.1,3.6-10.2c0.4-0.5,0.8-1,1.2-1.5c2.6-3.1,4.8-6.5,6.3-10.2c0.9-2.3,1.6-4.6,1.9-7.1
				c0.9-7-0.8-13.2-5.2-18.7c-3.5-4.3-7.8-7.5-13-9.5C145.9,176.4,143.3,176.1,140.9,176.1z"/>
		</g>
		<g>
			<path class="st0" d="M295.2,342.6H48.9c-26.5,0-48.1-21.6-48.1-48.1V48.2C0.7,21.6,22.3,0,48.9,0h246.3
				c26.5,0,48.1,21.6,48.1,48.1v246.3C343.3,321,321.7,342.6,295.2,342.6z M48.9,18.5c-16.4,0-29.7,13.3-29.7,29.7v246.3
				c0,16.4,13.3,29.7,29.7,29.7h246.3c16.4,0,29.7-13.3,29.7-29.7V48.2c0-16.4-13.3-29.7-29.7-29.7H48.9z"/>
		</g>
	</g>
	<g>
		<g>
			<path class="st0" d="M452.8,235.2v23c0,21.9,5.4,32,20,32c14.7,0,18.2-15,18.2-30.7c0-31.4-5.9-40.4-39.8-68.8
				c-37.4-31.7-56.7-50.5-56.7-99.4c0-47.5,15.7-91.2,78.7-91.2c66.8,0,76.7,45.6,76.7,83.6v19.1h-60.3V82.9
				c0-20.2-3.3-30.1-15.9-30.1c-11.8,0-15.6,10.1-15.6,29c0,20,3.6,29.9,31.1,51.3c48.9,38.4,66.4,60,66.4,114.7
				c0,52-17.8,94.9-83.8,94.9c-63.4,0-81.5-38.2-81.5-87.5v-19.9H452.8z"/>
			<path class="st0" d="M615.3,61.8h-48.4V5.3h160.9v56.5h-48.7v275.8h-63.8V61.8z"/>
			<path class="st0" d="M814.3,193.2v144.5h-63.8V5.3h82.9c55.7,0,83.2,24.5,83.2,82.6v12c0,47.4-18.9,61.4-33.2,68.2
				c20.7,10,30.4,25.2,30.4,71.5c0,32.1-0.5,80.6,2.3,98.1h-61.8c-4.1-15-3.8-58.3-3.8-100.7c0-37.4-4.3-43.8-28.6-43.8H814.3z
				 M814.5,142.8h7.9c21.3,0,30.1-6.7,30.1-37.7V89.1c0-22.3-4.5-33.4-28-33.4h-10V142.8z"/>
			<path class="st0" d="M1009.6,258.5l-8.2,79.1h-65.2l47-332.3h95.3l48.1,332.3h-66.5l-9.2-79.1H1009.6z M1045.5,202.2
				c-4.7-42.5-11.3-107.2-14.5-139h-2.5c-1.1,23.2-9,97.9-13.4,139H1045.5z"/>
			<path class="st0" d="M1162.6,61.8h-48.4V5.3h160.9v56.5h-48.7v275.8h-63.8V61.8z"/>
			<path class="st0" d="M1337.2,258.5l-8.2,79.1h-65.2l47-332.3h95.3l48.1,332.3h-66.5l-9.2-79.1H1337.2z M1373.2,202.2
				c-4.7-42.5-11.3-107.2-14.5-139h-2.5c-1.1,23.2-9,97.9-13.4,139H1373.2z"/>
		</g>
		<g>
			<path class="st0" d="M1498.1,1.8v332.6H1479V1.8H1498.1z"/>
			<path class="st0" d="M1551.7,334.4V1.8h24.7c22.7,76.5,75.7,261.3,83.1,298.2h1c-1.5-48.6-2.5-95.4-2.5-149.2V1.8h19.1v332.6
				h-24.1c-25.1-85.6-76.2-269.4-85.5-308.6h-0.5c2,39.8,3.9,101.2,3.9,161.5v147.2H1551.7z"/>
			<path class="st0" d="M1759.9,19.4h-54.3V1.8h126.7v17.6h-53.3v315.1h-19.1V19.4z"/>
			<path class="st0" d="M1954.1,164H1878v152.8h85.1l-3.1,17.6h-101.2V1.8h99.7v17.6H1878v127.1h76.1V164z"/>
			<path class="st0" d="M1994.8,1.8h19.1v315.1h83.7l-3.5,17.6h-99.3V1.8z"/>
		</g>
	</g>
</g>
</svg>
